<svg xmlns="http://www.w3.org/2000/svg" xmlns:svg="http://www.w3.org/2000/svg" style="height:512px;width:512px" id="svg8" version="1.1" viewBox="0 0 512 512"><metadata id="metadata14"/><path id="path2" fill="#000" fill-opacity="0" d="M0 0h512v512H0z"/><g id="g6" transform="matrix(0.5,0,0,0.5,128,280)" style="stroke-width:2"><path id="path4" d="m 318,123.645 -61.5,35.7 -61.76,-35.7 61.76,-35.7 z m 93.68,54.19 -61.76,35.7 61.76,35.7 61.5,-35.7 z m -294.39,80.64 61.76,35.7 61.5,-35.7 -61.5,-35.7 z m 139.52,-80.57 -61.76,35.7 61.76,35.7 61.5,-35.7 z M 31,298.365 l 62,35.69 v -71 l -62,-35.65 v 71 z m 373,-26 -62,35.69 v 70.94 l 62,-35.66 z m -225.11,-139.4 -61.76,35.7 61.76,35.7 61.5,-35.7 z m -69.89,210.34 62,35.69 v -70.94 l -62,-35.69 v 71 z m 225.41,-120.45 -61.76,35.7 61.76,35.7 61.5,-35.7 z m -85.41,130.2 -62,-35.7 v 71 l 62,35.7 z m 77,-35.67 -61,35.67 v 70.94 l 61,-35.66 z m 8.07,-184.5 -61.76,35.7 61.76,35.7 61.5,-35.7 z m -232.6,44.95 -61.77,35.7 61.76,35.7 61.5,-35.7 z m 379.53,49.73 -61,35.66 v 70.94 l 61,-35.66 z m -286.11,75.93 61.76,35.7 61.5,-35.7 -61.5,-35.7 z" style="fill:#7f7f7f;fill-opacity:1;stroke-width:2"/></g><g id="g838" transform="matrix(0.5,0,0,0.5,128.74851,38.391934)" style="stroke-width:2"><path id="path821" d="M 0,0 H 512 V 512 H 0 Z" style="fill:#000;fill-opacity:0;stroke-width:2"/><g id="g825" style="stroke-width:2"><path id="path823" d="m 60.81,476.91 h 300 v -60 h -300 z M 294.6,129.61 308.54,137 c 31.88,-43.62 61.34,-31.85 61.34,-31.85 l -21.62,53 35.64,19 2.87,33 64.42,108.75 -43.55,29.37 c 0,0 -26.82,-36.39 -39.65,-43.66 -10.66,-6 -41.22,-10.25 -56.17,-12 l -67.54,-76.91 -12,10.56 37.15,42.31 c -0.13,0.18 -0.25,0.37 -0.38,0.57 -35.78,58.17 23,105.69 68.49,131.78 H 84.14 C 93,85 294.6,129.61 294.6,129.61 Z" style="fill:#7f7f7f;fill-opacity:1;stroke-width:2"/></g></g></svg>