<svg xmlns="http://www.w3.org/2000/svg" xmlns:svg="http://www.w3.org/2000/svg" style="height:512px;width:512px" id="svg8" version="1.1" viewBox="0 0 512 512"><metadata id="metadata14"/><path id="path2" fill="#000" fill-opacity="0" d="M0 0h512v512H0z"/><g id="g6" transform="matrix(0.5,0,0,0.5,128,280)" style="stroke-width:2"><path id="path4" d="m 318,123.645 -61.5,35.7 -61.76,-35.7 61.76,-35.7 z m 93.68,54.19 -61.76,35.7 61.76,35.7 61.5,-35.7 z m -294.39,80.64 61.76,35.7 61.5,-35.7 -61.5,-35.7 z m 139.52,-80.57 -61.76,35.7 61.76,35.7 61.5,-35.7 z M 31,298.365 l 62,35.69 v -71 l -62,-35.65 v 71 z m 373,-26 -62,35.69 v 70.94 l 62,-35.66 z m -225.11,-139.4 -61.76,35.7 61.76,35.7 61.5,-35.7 z m -69.89,210.34 62,35.69 v -70.94 l -62,-35.69 v 71 z m 225.41,-120.45 -61.76,35.7 61.76,35.7 61.5,-35.7 z m -85.41,130.2 -62,-35.7 v 71 l 62,35.7 z m 77,-35.67 -61,35.67 v 70.94 l 61,-35.66 z m 8.07,-184.5 -61.76,35.7 61.76,35.7 61.5,-35.7 z m -232.6,44.95 -61.77,35.7 61.76,35.7 61.5,-35.7 z m 379.53,49.73 -61,35.66 v 70.94 l 61,-35.66 z m -286.11,75.93 61.76,35.7 61.5,-35.7 -61.5,-35.7 z" style="fill:#7f7f7f;fill-opacity:1;stroke-width:2"/></g><g id="g835" transform="matrix(0.5,0,0,0.5,127.89905,39.571087)" style="stroke-width:2"><path id="path818" d="M 0,0 H 512 V 512 H 0 Z" style="fill:#000;fill-opacity:0;stroke-width:2"/><g id="g822" style="stroke-width:2"><path id="path820" d="m 406.02,476.915 h -300 v -60 h 300 z m -83.46,-181 H 189.48 v 17.65 h 133.08 z m 11.78,-77.69 a 200,200 0 0 1 -9.39,61.69 H 187.09 a 200,200 0 0 1 -9.39,-61.69 c 0,-59.09 23.82,-109 56.41,-124.67 a 33.34,33.34 0 1 1 43.82,0 c 32.59,15.71 56.41,65.58 56.41,124.67 z m -51.07,-48.91 h -19.25 v -23.92 h -16 v 23.92 h -19.26 v 16 h 19.26 v 51.54 h 16 v -51.54 h 19.25 z m 38.15,180.69 v -20.44 h -130.8 v 20.44 H 93.29 v 0.11 l 49.46,49.46 h 82.08 l 31.15,-36 31.15,36 h 82.44 l 48.87,-48.87 0.27,-0.69 h -97.29 z" style="fill:#7f7f7f;fill-opacity:1;stroke-width:2"/></g></g></svg>