<svg xmlns="http://www.w3.org/2000/svg" viewBox="0 0 16.933 16.933"><defs><linearGradient id="c"><stop offset="0" stop-opacity=".2"/></linearGradient><linearGradient id="b" gradientTransform="scale(.07)"><stop offset="0" stop-color="#8c8c8c"/></linearGradient><linearGradient id="a" gradientTransform="matrix(.07 0 0 .07 -53.97503 2.11667)"><stop offset="0" stop-color="#595959"/></linearGradient><linearGradient id="g" x1="4.763" x2="12.171" y1="13.758" y2="13.758" gradientUnits="userSpaceOnUse" href="#a"/><linearGradient id="e" x1="40.766" x2="48.134" y1="8.202" y2="8.202" gradientUnits="userSpaceOnUse" href="#a"/><linearGradient id="i" x1="6.879" x2="10.054" y1="2.91" y2="2.91" gradientUnits="userSpaceOnUse" href="#b"/><linearGradient id="h" x1="4.762" x2="6.879" y1="13.626" y2="13.626" gradientUnits="userSpaceOnUse" href="#b"/><linearGradient id="f" x1="40.412" x2="44.979" y1="8.599" y2="8.599" gradientUnits="userSpaceOnUse" href="#b"/><linearGradient id="d" x1="4.233" x2="103.049" y1="24.342" y2="24.342" gradientTransform="matrix(1 0 0 1.25 .79375 -3.0427)" gradientUnits="userSpaceOnUse" href="#c"/></defs><path fill="url(#d)" d="M5.02708 14.81667c0 .99218 2.64584 1.32291 4.23334 1.32291s4.23333-.33073 4.23333-1.32291c0-.9922-2.7788-1.32292-4.23333-1.32292-1.45454 0-4.23334.33073-4.23334 1.32292" class="UnoptimicedTransforms" transform="matrix(1.094 0 0 1 -1.26502 0)" style="font-variation-settings:normal;-inkscape-stroke:none"/><g transform="translate(.00002)"><path fill="url(#e)" d="M42.33333 12.96458c-4.49792-5.55625 2.11666-9.525 2.11666-9.525s6.61459 3.96875 2.11667 9.525" transform="translate(-35.98335)" style="font-variation-settings:normal;-inkscape-stroke:none"/><path fill="url(#f)" d="M44.71458 4.23333c-1.85209 2.11667-3.70417 6.61459.26458 8.99584l-2.64583-.26459c-4.23334-4.49792-.52917-8.46666 2.11666-8.99583Z" transform="translate(-35.98335)" style="font-variation-settings:normal;-inkscape-stroke:none"/><path fill="none" stroke="#000" stroke-linejoin="round" stroke-miterlimit="2.4" stroke-width="1.058" d="M42.33333 12.96458c-4.49792-6.08541 2.11666-8.99583 2.11666-8.99583s6.61459 2.91042 2.11667 8.99583" transform="translate(-35.98335)" style="font-variation-settings:normal;-inkscape-stroke:none"/><path fill="url(#g)" d="M5.02706 12.7s-.26458.52917-.26456 1.5875c1.5875.52917 3.70417.52917 3.70417.52917s2.11666 0 3.70416-.52917c-.00002-1.05833-.2646-1.5875-.2646-1.5875-1.32292.52917-3.43958.52917-3.43958.52917s-2.11667 0-3.43959-.52917"/><path fill="url(#h)" d="m5.02706 12.7-.26458 1.5875 1.85208.26458.26459-1.32291z" style="font-variation-settings:normal;-inkscape-stroke:none"/><path fill="none" stroke="#000" stroke-linecap="round" stroke-linejoin="round" stroke-width="1.058" d="M5.02706 12.7s-.26458.52917-.26456 1.5875c1.5875.52917 3.70417.52917 3.70417.52917s2.11666 0 3.70416-.52917c-.00002-1.05833-.2646-1.5875-.2646-1.5875-1.32292.52917-3.43958.52917-3.43958.52917s-2.11667 0-3.43959-.52917"/><circle cx="8.467" cy="2.91" r="1.058" fill="url(#i)" stroke="#000" stroke-linejoin="round" stroke-width="1.058" style="font-variation-settings:normal;-inkscape-stroke:none"/><path fill="none" stroke="#000" stroke-linecap="round" stroke-linejoin="round" stroke-miterlimit="2.4" stroke-width="1.058" d="M8.46665 3.96875c3.175 1.5875 1.05833 3.70417 0 4.7625" style="font-variation-settings:normal"/></g></svg>