<svg xmlns="http://www.w3.org/2000/svg" viewBox="0 0 16.933 16.933"><defs><linearGradient id="c"><stop offset="0" stop-opacity=".2"/></linearGradient><linearGradient id="b" gradientTransform="scale(.07)"><stop offset="0" stop-color="#8c8c8c"/></linearGradient><linearGradient id="a" gradientTransform="matrix(.07 0 0 .07 -53.975 2.1167)"><stop offset="0" stop-color="#595959"/></linearGradient><linearGradient id="k" x1="76.2" x2="84.667" y1="12.965" y2="12.965" gradientUnits="userSpaceOnUse" href="#a"/><linearGradient id="e" x1="20.637" x2="31.221" y1="8.202" y2="8.202" gradientUnits="userSpaceOnUse" href="#a"/><linearGradient id="l" x1="82.285" x2="84.667" y1="12.832" y2="12.832" gradientUnits="userSpaceOnUse" href="#b"/><linearGradient id="j" x1="19.05" x2="22.225" y1="5.821" y2="5.821" gradientUnits="userSpaceOnUse" href="#b"/><linearGradient id="i" x1="29.633" x2="32.808" y1="5.821" y2="5.821" gradientUnits="userSpaceOnUse" href="#b"/><linearGradient id="h" x1="26.458" x2="29.633" y1="3.44" y2="3.44" gradientUnits="userSpaceOnUse" href="#b"/><linearGradient id="g" x1="22.225" x2="25.4" y1="3.44" y2="3.44" gradientUnits="userSpaceOnUse" href="#b"/><linearGradient id="f" x1="26.988" x2="30.427" y1="9.79" y2="9.79" gradientUnits="userSpaceOnUse" href="#b"/><linearGradient id="d" x1="4.233" x2="103.049" y1="24.342" y2="24.342" gradientTransform="matrix(1 0 0 1.25 .7937 -3.0427)" gradientUnits="userSpaceOnUse" href="#c"/></defs><path fill="url(#d)" d="M5.02708 14.81667c0 .99218 2.64584 1.32291 4.23334 1.32291s4.23333-.33073 4.23333-1.32291c0-.9922-2.7788-1.32292-4.23333-1.32292-1.45454 0-4.23334.33073-4.23334 1.32292" class="UnoptimicedTransforms" transform="matrix(1.215 0 0 1 -2.4051 0)" style="font-variation-settings:normal;-inkscape-stroke:none"/><g transform="matrix(-1 0 0 1 34.3958 0)"><path fill="url(#e)" d="m22.75413 12.96458-2.11667-7.14375c3.175 2.91042 3.175 1.32292 3.175-2.38125 2.11667 2.64584 2.11667 2.64584 4.23334 0 0 3.70417-.01298 5.3096 3.175 2.38125l-2.11667 7.14375" style="font-variation-settings:normal"/><path fill="url(#f)" d="m29.10413 12.96458-2.11667.26459S28.0458 10.58333 28.0458 6.35c.79375 1.05833 2.38125 1.05833 2.38125 1.05833s-1.5875 3.70417-1.32292 5.55625" style="font-variation-settings:normal"/><path fill="none" stroke="#000" stroke-linejoin="round" stroke-width="1.058" d="m22.22497 11.1125-1.5875-5.29167c3.175 2.91042 3.175 1.32292 3.175-2.38125 2.11666 3.43959 2.11666 3.43959 4.23333 0 0 3.70417-.01298 5.3096 3.175 2.38125l-1.5875 5.29167" style="font-variation-settings:normal"/><circle cx="23.813" cy="3.44" r="1.058" fill="url(#g)" stroke="#000" stroke-linejoin="round" stroke-width="1.058" style="font-variation-settings:normal"/><circle cx="28.046" cy="3.44" r="1.058" fill="url(#h)" stroke="#000" stroke-linejoin="round" stroke-width="1.058" style="font-variation-settings:normal"/><circle cx="31.221" cy="5.821" r="1.058" fill="url(#i)" stroke="#000" stroke-linejoin="round" stroke-width="1.058" style="font-variation-settings:normal"/><circle cx="20.637" cy="5.821" r="1.058" fill="url(#j)" stroke="#000" stroke-linejoin="round" stroke-width="1.058" style="font-variation-settings:normal"/><path fill="url(#k)" d="M76.4646 11.1125s-.26458 2.11666-.26456 3.175c1.5875.52916 4.23334.52916 4.23334.52916s2.64583 0 4.23333-.52916c-.00001-1.05834-.2646-3.175-.2646-3.175-1.32291.52916-3.96875.52916-3.96875.52916s-2.64583 0-3.96875-.52916" transform="translate(-54.5042)"/><path fill="url(#l)" d="m83.87294 11.1125.79375 3.175-1.85208.26458-.5292-2.91042z" transform="translate(-54.5042)" style="font-variation-settings:normal"/><path fill="none" stroke="#000" stroke-linecap="round" stroke-linejoin="round" stroke-width="1.058" d="M22.22496 11.1125s-.52913 2.11666-.5291 3.175c1.5875.52916 4.23333.52916 4.23333.52916s2.64583 0 4.23333-.52916c-.00002-1.05834-.52922-3.175-.52922-3.175-1.32292.52916-3.70417.52916-3.70417.52916s-2.38125 0-3.70417-.52916"/><path fill="none" stroke="#000" stroke-linejoin="round" stroke-width="1.058" d="M29.89789 12.7c-1.32293.52917-3.96875.52917-3.96875.52917s-2.64584 0-3.96876-.52917"/></g></svg>