<svg xmlns="http://www.w3.org/2000/svg" viewBox="0 0 16.933 16.933"><defs><linearGradient id="a"><stop offset="0" stop-color="#fff"/></linearGradient><linearGradient id="b" gradientTransform="translate(0 2.11667)"><stop offset="0" stop-color="#ccc"/></linearGradient><linearGradient id="c"><stop offset="0" stop-opacity=".2"/></linearGradient><linearGradient id="i" x1="25.929" x2="31.75" y1="8.599" y2="8.599" gradientUnits="userSpaceOnUse" href="#a"/><linearGradient id="g" x1="21.696" x2="30.163" y1="12.965" y2="12.965" gradientUnits="userSpaceOnUse" href="#a"/><linearGradient id="f" x1="92.075" x2="98.954" y1="8.599" y2="8.599" gradientUnits="userSpaceOnUse" href="#a"/><linearGradient id="e" x1="23.283" x2="28.575" y1="7.144" y2="7.144" gradientUnits="userSpaceOnUse" href="#a"/><linearGradient id="j" gradientTransform="translate(0 2.11667)" gradientUnits="userSpaceOnUse" href="#b"/><linearGradient id="h" gradientTransform="translate(0 2.11667)" gradientUnits="userSpaceOnUse" href="#b"/><linearGradient id="d" x1="4.233" x2="103.049" y1="24.342" y2="24.342" gradientTransform="matrix(1 0 0 1.25 .79375 -3.0427)" gradientUnits="userSpaceOnUse" href="#c"/></defs><path fill="url(#d)" d="M5.02708 14.81667c0 .99218 2.64584 1.32291 4.23334 1.32291s4.23333-.33073 4.23333-1.32291c0-.9922-2.7788-1.32292-4.23333-1.32292-1.45454 0-4.23334.33073-4.23334 1.32292" class="UnoptimicedTransforms" transform="matrix(1.215 0 0 1 -2.4051 0)" style="font-variation-settings:normal;-inkscape-stroke:none"/><g transform="translate(-17.46245)"><path fill="#a6a6a6" stroke="#000" stroke-linecap="round" stroke-linejoin="round" stroke-width="1.058" d="M25.92912 1.32292V4.7625" style="font-variation-settings:normal"/><ellipse cx="25.929" cy="7.144" fill="url(#e)" stroke="#000" stroke-linecap="round" stroke-linejoin="round" stroke-width="1.058" rx="2.117" ry="2.91" style="font-variation-settings:normal"/><path fill="url(#f)" stroke="#000" stroke-linecap="round" stroke-linejoin="round" stroke-width="1.058" d="M94.72082 11.1125s-2.11667-1.05834-2.11667-3.175c0-1.05833 1.00102-2.11667 2.11667-2.11667 2.11667 0 3.70417 1.5875 3.70417 5.55625" transform="translate(-72.49587)" style="font-variation-settings:normal"/><path fill="url(#g)" d="M21.9604 11.1125s-.26458 2.11666-.26456 3.175c1.5875.52916 4.23333.52916 4.23333.52916s2.64584 0 4.23334-.52916c-.00002-1.05834-.2646-3.175-.2646-3.175-1.32292.52916-3.96875.52916-3.96875.52916s-2.64584 0-3.96876-.52916"/><path fill="url(#h)" d="m29.36874 11.1125.79375 3.175-1.85208.26458-.5292-2.91042z" style="font-variation-settings:normal;-inkscape-stroke:none"/><path fill="url(#i)" d="M29.63329 11.1125s2.11666-1.05834 2.11666-3.175c0-1.05833-1.00102-2.11667-2.11666-2.11667-2.11667 0-3.70417 1.5875-3.70417 5.55625" style="font-variation-settings:normal"/><path fill="url(#j)" d="M30.16245 6.35c0 2.64583-.79375 3.70417-2.11666 4.7625 2.11666 0 3.70416-1.85208 3.70416-3.175 0-.88195-1.5875-1.5875-1.5875-1.5875" style="font-variation-settings:normal"/><path fill="none" stroke="#000" stroke-linecap="round" stroke-linejoin="round" stroke-width="1.058" d="M22.22495 11.1125s-.52913 2.11666-.52911 3.175c1.5875.52916 4.23333.52916 4.23333.52916s2.64584 0 4.23334-.52916c-.00002-1.05834-.52923-3.175-.52923-3.175-1.32291.52916-3.70416.52916-3.70416.52916s-2.38125 0-3.70417-.52916"/><path fill="#a6a6a6" stroke="#000" stroke-linecap="round" stroke-linejoin="round" stroke-width="1.058" d="M24.87079 2.38125h2.11666" style="font-variation-settings:normal"/><path fill="none" stroke="#000" stroke-linejoin="round" stroke-width="1.058" d="M29.89787 12.7c-1.32292.52917-3.96874.52917-3.96874.52917s-2.64585 0-3.96876-.52917"/><path fill="none" stroke="#000" stroke-linecap="round" stroke-linejoin="round" stroke-width="1.058" d="M29.63329 11.1125s2.11666-1.05834 2.11666-3.175c0-1.05833-1.00102-2.11667-2.11666-2.11667-2.11667 0-3.70417 1.5875-3.70417 5.55625" style="font-variation-settings:normal"/></g></svg>