<svg xmlns="http://www.w3.org/2000/svg" viewBox="0 0 16.933 16.933"><defs><linearGradient id="a"><stop offset="0" stop-color="#fff"/></linearGradient><linearGradient id="b" gradientTransform="translate(0 2.11667)"><stop offset="0" stop-color="#ccc"/></linearGradient><linearGradient id="c"><stop offset="0" stop-opacity=".2"/></linearGradient><linearGradient id="i" x1="4.498" x2="12.435" y1="5.806" y2="5.806" gradientUnits="userSpaceOnUse" href="#a"/><linearGradient id="g" x1="4.233" x2="12.7" y1="13.758" y2="13.758" gradientUnits="userSpaceOnUse" href="#a"/><linearGradient id="e" x1="41.275" x2="47.625" y1="9.79" y2="9.79" gradientUnits="userSpaceOnUse" href="#a"/><linearGradient id="j" gradientTransform="translate(0 2.11667)" gradientUnits="userSpaceOnUse" href="#b"/><linearGradient id="h" gradientTransform="translate(0 2.11667)" gradientUnits="userSpaceOnUse" href="#b"/><linearGradient id="f" gradientTransform="translate(0 2.11667)" gradientUnits="userSpaceOnUse" href="#b"/><linearGradient id="d" x1="4.233" x2="103.049" y1="24.342" y2="24.342" gradientTransform="matrix(1 0 0 1.25 .79375 -3.0427)" gradientUnits="userSpaceOnUse" href="#c"/></defs><path fill="url(#d)" d="M5.02708 14.81667c0 .99218 2.64584 1.32291 4.23334 1.32291s4.23333-.33073 4.23333-1.32291c0-.9922-2.7788-1.32292-4.23333-1.32292-1.45454 0-4.23334.33073-4.23334 1.32292" class="UnoptimicedTransforms" transform="matrix(1.215 0 0 1 -2.40514 0)" style="font-variation-settings:normal;-inkscape-stroke:none"/><path fill="url(#e)" d="m41.27498 12.96458.52917-6.35h5.29166l.52917 6.35" transform="translate(-35.98332)" style="font-variation-settings:normal;-inkscape-stroke:none"/><path fill="url(#f)" d="m9.52497 6.87917.52916 6.35 1.5875-.26459-.52916-6.35z" transform="translate(.00003)" style="font-variation-settings:normal;-inkscape-stroke:none"/><path fill="none" stroke="#000" stroke-linejoin="round" stroke-miterlimit="2.4" stroke-width="1.058" d="m41.27498 12.7.52917-5.02708m5.29166 0L47.62498 12.7" transform="translate(-35.98332)" style="font-variation-settings:normal;-inkscape-stroke:none"/><path fill="url(#g)" d="M4.4979 12.7s-.26459.52917-.26457 1.5875c1.5875.52917 4.23334.52917 4.23334.52917s2.64583 0 4.23333-.52917c-.00002-1.05833-.2646-1.5875-.2646-1.5875-1.32292.52917-3.96875.52917-3.96875.52917s-2.64584 0-3.96875-.52917" transform="translate(.00003)"/><path fill="url(#h)" d="m12.4354 12.7.26458 1.5875-1.85208.26458-.26459-1.32291z" transform="translate(.00003)" style="font-variation-settings:normal;-inkscape-stroke:none"/><path fill="none" stroke="#000" stroke-linecap="round" stroke-linejoin="round" stroke-width="1.058" d="M4.49793 12.7s-.26459.52917-.26457 1.5875c1.5875.52917 4.23334.52917 4.23334.52917s2.64583 0 4.23333-.52917c-.00002-1.05833-.2646-1.5875-.2646-1.5875-1.32292.52917-3.96875.52917-3.96875.52917s-2.64584 0-3.96875-.52917"/><path fill="url(#i)" d="M5.29163 3.96875S4.49787 6.35 4.49788 7.40833c1.5875.52917 3.96878 0 3.96878 0s2.38122.52917 3.96872 0c-.00002-1.05833-.52916-3.43958-.52916-3.43958-1.32292.52917-3.43959.26458-3.43959.26458s-1.85208.26459-3.175-.26458" transform="translate(.00003)"/><path fill="url(#j)" d="m11.90623 5.29167.26457 2.11666-.79375.79375-.52917-4.23333h.79375" transform="translate(.00003)" style="font-variation-settings:normal;-inkscape-stroke:none"/><path fill="none" stroke="#000" stroke-linecap="round" stroke-linejoin="round" stroke-width="1.058" d="M4.7625 3.96875S4.4979 6.35 4.4979 7.40833c1.32292.52917 3.96878.52917 3.96878.52917s2.6458 0 3.96872-.52917c-.00002-1.05833-.26458-3.43958-.26458-3.43958z"/><path fill="none" stroke="#000" stroke-linejoin="round" stroke-width="1.058" d="m7.14372 3.70417-.1466 2.38125m2.63415-2.38125.1466 2.38125" class="UnoptimicedTransforms" transform="translate(.07917 .00674)" style="font-variation-settings:normal"/></svg>