<svg xmlns="http://www.w3.org/2000/svg" xmlns:svg="http://www.w3.org/2000/svg" id="svg8" width="10mm" height="10mm" version="1.1" viewBox="0 0 10 10"><metadata id="metadata5"/><g id="layer1" transform="translate(0,-287)" style="fill:#fff;fill-opacity:1"><g style="fill:#fff;fill-opacity:1;stroke-width:.09651081;stroke-miterlimit:4;stroke-dasharray:none" id="g906" transform="matrix(1.0736137,0,0,1,-0.23322654,0.02910263)"><path id="path886-5" d="m 6.5422048,294.17824 c 1.077612,0 1.124675,0.85728 1.124675,1.49455 H 2.068755 c 0,-0.64896 0.046562,-1.49455 1.1241734,-1.49455 z" style="fill:#000;fill-opacity:1;stroke:none;stroke-width:.38604324;stroke-linecap:butt;stroke-linejoin:miter;stroke-miterlimit:4;stroke-dasharray:none;stroke-opacity:1"/><path id="path928" d="M 6.4242163,293.76115 H 3.3095785 c 0.0424,-1.22346 1.357078,-1.87383 1.4168809,-2.4641 0.059803,-0.59028 -0.2080426,-0.7423 -0.2080426,-0.7423 0,0 -0.1834942,0.7095 -0.4174346,0.85452 -0.2339403,0.14502 -0.7784055,0.28131 -0.7784055,0.28131 0,0 -0.3820356,0.35717 -0.6072197,0.33229 -0.2251841,-0.0249 -0.4178569,-0.58216 -0.4178569,-0.58216 l 0.7646188,-1.2611 0.3873896,-0.89394 0.3655417,-0.41302 0.1566535,-0.60659 0.4401244,0.53348 c 2.423105,0 2.9484812,3.23531 2.0123882,4.96161 z" style="fill:#000;fill-opacity:1;stroke:none;stroke-width:.36607537;stroke-linecap:butt;stroke-linejoin:miter;stroke-miterlimit:4;stroke-dasharray:none;stroke-opacity:1"/></g></g></svg>