<svg xmlns="http://www.w3.org/2000/svg" xmlns:svg="http://www.w3.org/2000/svg" id="Layer_1" data-name="Layer 1" version="1.1" viewBox="0 0 960 960"><defs id="defs1"><style id="style1">.cls-1{fill:#da0000;fill-rule:evenodd}.cls-1,.cls-2,.cls-3,.cls-4,.cls-5{stroke-width:0}.cls-2{fill:#fff}.cls-3{fill:#eee}.cls-4{fill:#d80027}.cls-5{fill:#239f40}.cls-6{mask:url(#mask)}</style><mask id="mask" width="959.91" height="959.91" x=".11" y=".09" maskUnits="userSpaceOnUse"><g id="a"><circle id="circle1" cx="480.07" cy="480.04" r="479.96" class="cls-2"/></g></mask></defs><g id="g4" class="cls-6" mask="url(#mask)"><g id="g3"><path id="path1" d="M.11,271.38L485.32,74.33l474.71,197.04v417.34l-478.08,235.67L.11,688.71v-417.34Z" class="cls-3"/><path id="path2" d="M.11.09v271.29h197.98v-41.62h62.99v41.62h62.43v-41.62h62.99v41.62h62.43v-41.62h62.99v41.62h61.87v-41.62h62.99v41.62h62.24v-41.62h62.99v41.62h197.98V.09H.11Z" class="cls-5"/><path id="path3" d="M.11,688.71v271.29h959.91v-271.29h-197.98v42h-62.99v-42h-62.24v42h-62.99v-42h-61.87v42h-62.99v-42h-62.43v42h-62.99v-42h-62.43v42h-62.99v-42H.11Z" class="cls-4"/></g></g><g id="g8"><path id="path4" d="M523.13,353.29c18.57,22.38,74.96,146.56-34.01,228.01-51.24,38.49-19.47,40.28-17.9,46.99,82.34-43.86,109.19-102.93,108.52-156.18-.67-53.03-28.64-99.79-56.39-118.81h-.22Z" class="cls-1"/><path id="path5" d="M534.32,347.47c74.82,45.83,98.33,143.63,52.5,218.45-5.47,8.94-11.82,17.31-18.94,25,59.07-12.98,134.25-187.28-34.01-243.45h.45ZM409.24,347.47c-74.82,45.83-98.33,143.63-52.5,218.45,5.47,8.94,11.82,17.31,18.94,25-59.3-12.98-134.48-187.28,33.56-243.45h0Z" class="cls-1"/><path id="path6" d="M420.2,353.29c-18.35,22.38-74.96,146.56,34.01,228.01,51.24,38.49,19.47,40.28,17.9,46.99-82.12-43.86-109.19-102.93-108.52-156.18.67-53.03,28.86-99.79,56.61-118.81h0Z" class="cls-1"/><path id="path7" d="M576.16,616.87c-35.41,1.37-70.65-5.53-102.93-20.14,4.92,9.62,8.95,15.66,14.1,25.51,28.64,2.46,68.25,5.82,88.83-5.37h0ZM370.3,616.87c32.22.45,72.94-4.48,102.93-20.14-4.92,9.62-8.95,15.66-14.1,25.51-28.64,2.46-68.25,5.82-88.83-5.37h0ZM429.37,316.14c6.71,17.23,23.72,19.91,42.07,9.62,13.43,8.06,34.01,8.5,41.17-8.95,5.37,42.96-39.83,32.89-41.39,24.61-16.78,16.11-48.11,6.71-41.84-25.28h0Z" class="cls-1"/><path id="path8" d="M472.56,643.94l17.01-19.47,2.24-260.45-20.14-17.9-20.14,17.01,4.03,262.24,17.01,18.57Z" class="cls-1"/></g></svg>