<svg xmlns="http://www.w3.org/2000/svg" xmlns:svg="http://www.w3.org/2000/svg" id="svg33" width="750" height="750" aria-hidden="true" class="iconify iconify--emojione" preserveAspectRatio="xMidYMid" role="img" version="1.1" viewBox="0 0 60 60"><circle id="circle1" cx="30" cy="30" r="30" fill="#00afca"/><g id="g2" fill="#ffe62e" transform="translate(-2,-2)"><path id="path1" d="m 56.7,33.1 c -0.7,-0.4 -1.5,0.1 -1.5,0.8 -0.3,4.9 -8.9,6.2 -13,6.2 -4.1,0.1 -12.9,-1.4 -13.2,-6.2 0,-0.7 -0.8,-1.1 -1.5,-0.8 -2.1,1.1 -2.8,3.2 -2.3,5.3 0.9,3.8 5.6,6.5 9.6,7.7 -0.3,0.7 -0.4,1.4 -0.5,2.1 -0.1,0.8 1.1,1.1 1.7,0.6 2.3,-1.7 5.9,-2.4 8.9,-2.4 1.3,0 1.3,-1.8 0,-1.8 -2.7,0 -5.6,0.5 -8,1.6 0.9,-2.1 3,-4.2 5.3,-4.3 h 0.1 c 4.8,0.1 12.5,-1.6 14.5,-6.1 0.3,0.8 0.3,1.7 0,2.5 -1,3.2 -4.5,4.5 -7.8,5.4 -1.2,0.3 -0.7,2.1 0.5,1.7 4.2,-1.1 7.5,-2.8 9.2,-6.6 0.8,-2 0,-4.4 -2,-5.7 M 35.6,44.4 c -3.3,-0.9 -5.8,-2.5 -7.8,-5.1 -0.8,-1.1 -1.1,-2.6 -0.4,-3.7 1.5,3.5 6.4,5.3 10.8,5.9 -1,0.8 -1.9,1.8 -2.6,2.9"/><circle id="circle2" cx="42" cy="27" r="7.7"/><path id="path2" d="m 42,18.3 c 0.5,0 0.6,-0.3 0.6,-0.6 0,-0.5 -0.6,-2.6 -0.6,-2.6 0,0 -0.6,2.2 -0.6,2.6 0,0.3 0.1,0.6 0.6,0.6"/></g><g id="g33" fill="#ffe62e" transform="translate(-2,-2)"><path id="path3" d="m 45.3,18.9 c 0.4,0.2 0.7,0 0.8,-0.3 0.2,-0.4 0.4,-2.7 0.4,-2.7 0,0 -1.4,1.8 -1.6,2.2 0,0.3 0,0.7 0.4,0.8"/><path id="path4" d="m 50.1,30.3 c -0.2,0.4 0,0.7 0.3,0.8 0.4,0.2 2.7,0.4 2.7,0.4 0,0 -1.8,-1.4 -2.2,-1.6 -0.3,0 -0.7,0 -0.8,0.4"/><path id="path5" d="m 38.7,35.1 c -0.4,-0.2 -0.7,0 -0.8,0.3 -0.2,0.4 -0.4,2.7 -0.4,2.7 0,0 1.4,-1.8 1.6,-2.2 0,-0.3 0,-0.7 -0.4,-0.8"/><path id="path6" d="m 33.9,23.7 c 0.2,-0.4 0,-0.7 -0.3,-0.8 -0.4,-0.2 -2.7,-0.4 -2.7,-0.4 0,0 1.8,1.4 2.2,1.6 0.3,0 0.7,0 0.8,-0.4"/><path id="path7" d="m 48.2,20.8 c 0.3,0.3 0.7,0.2 0.9,0 0.3,-0.3 1.4,-2.3 1.4,-2.3 0,0 -2,1.1 -2.3,1.4 -0.3,0.3 -0.3,0.6 0,0.9"/><path id="path8" d="m 48.2,33.2 c -0.3,0.3 -0.2,0.6 0,0.9 0.3,0.3 2.3,1.4 2.3,1.4 0,0 -1.1,-2 -1.4,-2.3 -0.3,-0.3 -0.6,-0.3 -0.9,0"/><path id="path9" d="m 35.8,33.2 c -0.3,-0.3 -0.7,-0.2 -0.9,0 -0.3,0.3 -1.4,2.3 -1.4,2.3 0,0 2,-1.1 2.3,-1.4 0.3,-0.3 0.3,-0.6 0,-0.9"/><path id="path10" d="m 35.8,20.8 c 0.3,-0.3 0.2,-0.7 0,-0.9 -0.3,-0.3 -2.3,-1.4 -2.3,-1.4 0,0 1.1,2 1.4,2.3 0.3,0.3 0.6,0.3 0.9,0"/><path id="path11" d="m 50.1,23.7 c 0.2,0.4 0.5,0.5 0.8,0.3 0.4,-0.2 2.2,-1.6 2.2,-1.6 0,0 -2.3,0.3 -2.7,0.4 -0.3,0.2 -0.5,0.4 -0.3,0.9"/><path id="path12" d="m 45.3,35.1 c -0.4,0.2 -0.5,0.5 -0.3,0.8 0.2,0.4 1.6,2.2 1.6,2.2 0,0 -0.3,-2.3 -0.4,-2.7 -0.2,-0.3 -0.4,-0.5 -0.9,-0.3"/><path id="path13" d="m 33.9,30.3 c -0.2,-0.4 -0.5,-0.5 -0.8,-0.3 -0.4,0.2 -2.2,1.6 -2.2,1.6 0,0 2.3,-0.3 2.7,-0.4 0.3,-0.2 0.5,-0.4 0.3,-0.9"/><path id="path14" d="m 38.7,18.9 c 0.4,-0.2 0.5,-0.5 0.3,-0.8 -0.2,-0.4 -1.6,-2.2 -1.6,-2.2 0,0 0.3,2.2 0.4,2.7 0.2,0.3 0.4,0.5 0.9,0.3"/><path id="path15" d="m 43.7,18.4 c 0.4,0.1 0.7,-0.2 0.7,-0.5 0.1,-0.4 -0.1,-2.7 -0.1,-2.7 0,0 -1,2 -1.1,2.5 -0.1,0.3 0.1,0.6 0.5,0.7"/><path id="path16" d="m 50.6,28.7 c -0.1,0.4 0.2,0.7 0.5,0.7 0.4,0.1 2.7,-0.1 2.7,-0.1 0,0 -2,-1 -2.5,-1.1 -0.3,-0.1 -0.6,0.1 -0.7,0.5"/><path id="path17" d="m 40.3,35.6 c -0.4,-0.1 -0.7,0.2 -0.7,0.5 -0.1,0.4 0.1,2.7 0.1,2.7 0,0 1,-2 1.1,-2.5 0.1,-0.3 -0.1,-0.6 -0.5,-0.7"/><path id="path18" d="m 33.4,25.3 c 0.1,-0.5 -0.2,-0.7 -0.5,-0.7 -0.4,-0.1 -2.7,0.1 -2.7,0.1 0,0 2,1 2.5,1.1 0.3,0.1 0.6,-0.1 0.7,-0.5"/><path id="path19" d="m 46.9,19.7 c 0.4,0.2 0.7,0.1 0.9,-0.2 0.3,-0.4 0.9,-2.5 0.9,-2.5 0,0 -1.7,1.5 -2,1.8 -0.2,0.3 -0.2,0.7 0.2,0.9"/><path id="path20" d="m 49.3,31.9 c -0.2,0.4 -0.1,0.7 0.2,0.9 0.4,0.3 2.5,0.9 2.5,0.9 0,0 -1.5,-1.7 -1.8,-2 -0.3,-0.2 -0.7,-0.2 -0.9,0.2"/><path id="path21" d="m 37.1,34.3 c -0.4,-0.2 -0.7,-0.1 -0.9,0.2 -0.2,0.3 -0.9,2.5 -0.9,2.5 0,0 1.7,-1.5 2,-1.8 0.2,-0.3 0.2,-0.7 -0.2,-0.9"/><path id="path22" d="M 34.7,22.1 C 34.9,21.7 34.8,21.4 34.5,21.2 34.2,21 32,20.3 32,20.3 c 0,0 1.5,1.7 1.8,2 0.3,0.2 0.7,0.2 0.9,-0.2"/><path id="path23" d="m 49.3,22.1 c 0.3,0.4 0.6,0.4 0.9,0.2 0.4,-0.3 1.8,-2 1.8,-2 0,0 -2.2,0.7 -2.5,0.9 -0.3,0.3 -0.5,0.6 -0.2,0.9"/><path id="path24" d="m 46.9,34.3 c -0.4,0.3 -0.4,0.6 -0.2,0.9 0.3,0.4 2,1.8 2,1.8 0,0 -0.7,-2.2 -0.9,-2.5 -0.3,-0.3 -0.6,-0.5 -0.9,-0.2"/><path id="path25" d="m 34.7,31.9 c -0.3,-0.4 -0.6,-0.4 -0.9,-0.2 -0.4,0.3 -1.8,2 -1.8,2 0,0 2.2,-0.7 2.5,-0.9 0.3,-0.3 0.5,-0.6 0.2,-0.9"/><path id="path26" d="m 37.1,19.7 c 0.4,-0.3 0.4,-0.6 0.2,-0.9 -0.3,-0.4 -2,-1.8 -2,-1.8 0,0 0.7,2.2 0.9,2.5 0.3,0.3 0.6,0.5 0.9,0.2"/><path id="path27" d="m 50.6,25.3 c 0.1,0.4 0.4,0.6 0.7,0.5 0.4,-0.1 2.5,-1.1 2.5,-1.1 0,0 -2.3,-0.2 -2.7,-0.1 -0.4,0 -0.6,0.2 -0.5,0.7"/><path id="path28" d="m 43.7,35.6 c -0.4,0.1 -0.6,0.4 -0.5,0.7 0.1,0.4 1.1,2.5 1.1,2.5 0,0 0.2,-2.3 0.1,-2.7 0,-0.4 -0.2,-0.6 -0.7,-0.5"/><path id="path29" d="m 33.4,28.7 c -0.1,-0.4 -0.4,-0.6 -0.7,-0.5 -0.4,0.1 -2.5,1.1 -2.5,1.1 0,0 2.3,0.2 2.7,0.1 0.4,0 0.6,-0.2 0.5,-0.7"/><path id="path30" d="m 40.3,18.4 c 0.4,-0.1 0.6,-0.4 0.5,-0.7 -0.1,-0.4 -1.1,-2.5 -1.1,-2.5 0,0 -0.2,2.3 -0.1,2.7 0,0.4 0.2,0.6 0.7,0.5"/><path id="path31" d="m 16.5,51.6 h -1.1 v 3.7 h -2.2 c 1.1,0.9 2.2,1.6 3.4,2.4 v -6.1 z"/><path id="path32" d="m 15.4,8.7 v 3.7 h 1.1 V 6.3 C 15.3,7 14.2,7.8 13.1,8.7 h 2.3"/><path id="path33" d="M 12.9,8.8 C 12.6,9 12.3,9.3 12,9.6 l 3,6.5 h -2.5 v -3.7 h -1.1 v 3.7 H 8.9 l 2.9,-6.3 c -0.8,0.7 -1.6,1.5 -2.3,2.4 l -2.3,4.9 3.9,8.4 H 8.6 V 21.8 H 7.5 v 9.8 h 1.1 v -4.1 h 2.6 L 9.7,32 11.2,36.4 H 8.6 V 32.3 H 7.5 v 9.8 h 1.1 v -3.7 h 2.5 l -3.9,8.4 2.3,4.9 c 0.7,0.8 1.5,1.6 2.3,2.4 L 8.9,47.8 h 2.5 v 3.7 h 1.1 V 47.8 H 15 l -3,6.5 c 0.3,0.3 0.6,0.5 0.9,0.8 l 3.8,-8.3 -3.9,-8.4 h 2.5 v 3.7 h 1.1 v -9.8 h -1.1 v 4.1 H 12.7 L 14.2,32 12.7,27.6 h 2.6 v 4.1 h 1.1 v -9.8 h -1.1 v 3.7 h -2.5 l 3.9,-8.4 -3.8,-8.4 m 2.2,37.1 h -2.5 v -3.7 h -1.1 v 3.7 H 8.9 l 3.1,-6.6 3.1,6.6 M 12,35.2 11.2,32.9 h 1.6 L 12,35.2 m 0.8,-4.1 h -1.6 l 0.8,-2.3 0.8,2.3 M 12,24.8 8.9,18.2 h 2.5 v 3.7 h 1.1 V 18.2 H 15 l -3,6.6"/></g></svg>