<svg xmlns="http://www.w3.org/2000/svg" xmlns:svg="http://www.w3.org/2000/svg" id="Layer_1" data-name="Layer 1" version="1.1" viewBox="0 0 960 960"><defs id="defs1"><style id="style1">.cls-1{fill:#c1272d}.cls-1,.cls-2,.cls-3{stroke-width:0}.cls-2{fill:#006233}.cls-3{fill:#fff}.cls-4{mask:url(#mask)}</style><mask id="mask" width="960.37" height="960.37" x="-.37" y="-.14" maskUnits="userSpaceOnUse"><g id="a"><circle id="circle1" cx="479.81" cy="480.04" r="480.19" class="cls-3"/></g></mask></defs><g id="g3" class="cls-4" mask="url(#mask)"><g id="g2"><path id="path1" d="M-.37-.14h960.37v960.37H-.37V-.14Z" class="cls-1"/><path id="path2" d="M763.61,393.76h-216.83l-66.96-205.77-66.96,205.77h-216.83l175.38,127.55-66.96,205.96,175.38-127.17,175.38,127.55-66.96-206.33,175.38-127.55ZM420.35,505.37l22.88-69.59h73.15l22.7,69.59-59.27,43.14-59.27-43.14h-.19ZM502.88,393.95h-46.14l23.07-71.09,23.07,71.09ZM574.73,479.67l-14.44-43.89h74.84l-60.4,43.89ZM399.16,435.78l-14.44,43.89-60.4-43.89h74.84ZM383.59,618.29l23.07-71.28,37.51,27.2-60.59,44.08ZM515.08,574.39l37.51-27.2,23.07,71.09-60.59-43.89Z" class="cls-2"/></g></g></svg>