<svg xmlns="http://www.w3.org/2000/svg" xmlns:svg="http://www.w3.org/2000/svg" id="svg9" width="750" height="750" aria-hidden="true" class="iconify iconify--emojione" preserveAspectRatio="xMidYMid" role="img" version="1.1" viewBox="0 0 60 60"><g id="g2" fill="#c94747" transform="translate(-2,-2)"><path id="path1" d="m 2,32 c 0,13.1 8.4,24.2 20,28.3 V 3.7 C 10.4,7.8 2,18.9 2,32 Z"/><path id="path2" d="M 62,32 C 62,18.9 53.7,7.8 42,3.7 V 60.3 C 53.7,56.2 62,45.1 62,32"/></g><path id="path3" fill="#2872a0" d="m 20,58.3 c 3.1,1.1 6.5,1.7 10,1.7 3.5,0 6.9,-0.6 10,-1.7 V 1.7 C 36.9,0.6 33.5,0 30,0 26.5,0 23.1,0.6 20,1.7 Z"/><g id="g7" transform="matrix(5,0,0,5,-2,-2)"><circle id="circle3" cx="2.6" cy="4.8" r=".7" fill="#f9cf02"/><circle id="circle4" cx="2.6" cy="4.4" r=".8" fill="#c94747"/><g id="g6" fill="#f9cf02"><circle id="circle5" cx="2.6" cy="4.6" r=".5"/><path id="path5" d="M 2.3,3.6 C 2.3,3.8 2.4,3.9 2.6,3.9 2.8,3.9 3,3.8 3,3.6 3,3.5 2.9,3.5 2.9,3.4 V 3.2 3.5 c 0,0 0,0.1 -0.1,0.1 C 2.7,3.6 2.7,3.6 2.7,3.5 2.7,3.4 2.8,3.4 2.8,3.3 2.8,3.2 2.8,3.2 2.7,3.1 2.7,3 2.6,3 2.6,2.9 c -0.1,0 0,0.2 0,0.2 0,0 -0.1,0.1 -0.1,0.2 v 0.2 c 0,0 0,0.1 -0.1,0.1 -0.1,0 -0.1,0 -0.1,-0.1 V 3.4 c 0,-0.1 -0.1,-0.1 0,-0.2 -0.1,0.1 0,0.1 0,0.2 v 0.2"/><path id="path6" d="M 1.2,5.6 V 8.7 H 1.8 V 5.6 H 1.2 m 2.2,0 V 8.7 H 4.1 V 5.6 H 3.4 M 2,6.1 V 6.4 H 3.3 V 6.1 H 2 M 2,7.9 V 8.2 H 3.3 V 7.9 H 2 M 2,5.6 H 3.3 L 2.6,6 2,5.6 M 2,8.3 H 3.3 L 2.6,8.7 2,8.3"/></g></g><circle id="circle7" cx="11.2" cy="33.8" r="3.4" fill="#f9cf02"/><g id="g9" fill="#c94747" transform="translate(-2,-2)"><path id="path7" d="m 13.2,39.5 c -2,0 -3.6,-1.6 -3.6,-3.6 0,-2 1.6,-3.6 3.6,-3.6 2,0 3.6,1.6 3.6,3.6 0,2 -1.6,3.6 -3.6,3.6 m 0,-6.9 c -1.8,0 -3.3,1.5 -3.3,3.3 0,1.8 1.5,3.3 3.3,3.3 1.8,0 3.3,-1.5 3.3,-3.3 0,-1.8 -1.5,-3.3 -3.3,-3.3"/><path id="path8" d="m 13.2,39.5 c -1.1,0 -1.9,-0.9 -1.9,-1.9 0,-1 0.9,-1.9 1.9,-1.9 0.8,0 1.5,-0.7 1.5,-1.5 0,-0.8 -0.7,-1.5 -1.5,-1.5 v -0.4 c 1.1,0 1.9,0.9 1.9,1.9 0,1.1 -0.9,1.9 -1.9,1.9 -0.8,0 -1.5,0.7 -1.5,1.5 0,0.8 0.7,1.5 1.5,1.5 v 0.4"/><circle id="circle8" cx="13.2" cy="34.1" r=".7"/><circle id="circle9" cx="13.2" cy="37.5" r=".6"/></g></svg>