<svg xmlns="http://www.w3.org/2000/svg" xmlns:svg="http://www.w3.org/2000/svg" id="Layer_1" data-name="Layer 1" version="1.1" viewBox="0 0 960 960"><defs id="defs1"><style id="style1">.cls-1{fill:#ce0000;stroke:#000063;stroke-width:13px}.cls-2,.cls-3{fill:#fff}.cls-2,.cls-3,.cls-4,.cls-5{stroke-width:0}.cls-3{fill-rule:evenodd}.cls-4{fill:#eee}.cls-5{fill:#d80027}.cls-6{mask:url(#mask)}</style><mask id="mask" width="972.72" height="972.91" x="-7.2" y="-6.41" maskUnits="userSpaceOnUse"><g id="a"><circle id="circle1" cx="472.75" cy="480.04" r="479.96" class="cls-2"/></g></mask></defs><g id="g4" class="cls-6" mask="url(#mask)"><g id="g3"><path id="path1" d="M421.01.09h531.7v959.91h-51.37L291.64,484.73,421.01.09Z" class="cls-4"/><path id="path2" d="M949.9,532.16L421.19.09h-73.68l-132.93,475.83,612.88,484.08h73.87l-427.84-427.84h476.39Z" class="cls-1"/><path id="path3" d="M827.47,480.04L347.51.09H-7.2v959.91h834.67l-479.96-479.96h479.96Z" class="cls-5"/></g></g><path id="path4" d="M479.44,675.89l-60.81,20.27,47.75,44.59-64.19-4.05,26.35,59.01-57.43-27.7,1.13,64.41-42.34-47.07-24.1,59.91-20.72-59.23-45.72,46.4,4.05-62.39-60.58,25.68,28.38-56.31-65.99,1.35,48.42-41.22-61.49-23.65,60.81-20.27-47.97-44.59,63.96,4.05-26.13-59.01,57.66,27.7-1.13-64.41,42.34,47.07,24.1-59.91,20.5,59.23,45.95-46.4-4.28,62.39,60.81-25.68-28.6,56.31,66.21-1.35-48.42,41.22,61.49,23.65ZM406.47,259.91l-25.45,18.92,12.61,10.36c29.6-20.67,53.4-48.59,69.14-81.08,4.05,47.97-39.86,155.4-154.73,156.53-87.81,1.12-159.9-69.16-161.02-156.96,0-.46,0-.91-.01-1.37,22.52,40.99,36.49,60.81,72.07,82.21l10.59-9.91-23.87-20.04,30.86-8.11-16.67-27.93,32.43,2.25-4.05-32.43,28.38,16.67,9.01-30.4,20.27,24.32,19.14-23.2,10.36,31.53,26.58-18.47-3.38,32.21,31.98-3.83-15.09,29.73,30.86,9.01Z" class="cls-3"/></svg>