<svg xmlns="http://www.w3.org/2000/svg" xmlns:svg="http://www.w3.org/2000/svg" id="Layer_1" data-name="Layer 1" version="1.1" viewBox="0 0 960 960"><defs id="defs1"><style id="style1">.cls-1,.cls-2{fill:#e5be01}.cls-1,.cls-3,.cls-4,.cls-5,.cls-6{stroke-width:0}.cls-2{stroke:#00a1de;stroke-miterlimit:2.84;stroke-width:2.42px}.cls-3{fill:#fff}.cls-4{fill:#20603d}.cls-5{fill:#fad201}.cls-7{mask:url(#mask)}.cls-6{fill:#00a1de}</style><mask id="mask" width="959.91" height="959.91" x="-.25" y=".09" maskUnits="userSpaceOnUse"><g id="a"><circle id="circle1" cx="479.7" cy="480.04" r="479.96" class="cls-3"/></g></mask></defs><g id="g4" class="cls-7" mask="url(#mask)"><g id="g3"><path id="path1" d="M-.25,709.71l476.39-41.43,483.52,41.43v250.29H-.25v-250.29Z" class="cls-4"/><path id="path2" d="M-.25,480.23l478.08-56.81,481.83,56.81v229.48H-.25v-229.48Z" class="cls-5"/><path id="path3" d="M-.25.09h959.91v479.96H-.25V.09Z" class="cls-6"/></g></g><g id="g5"><g id="rw-b"><path id="rw-a" d="M829.17,285.42l-107.19,6.27,101.86,33.86-105.06-21.73,89.72,58.93-95.99-48.26,71.19,80.39-80.12-71.33,48.26,95.99-59.06-89.72,21.6,104.92-33.73-101.72-6.27,107.19-1.33-156.12,156.12,1.33Z" class="cls-1"/><path id="rw-a-2" d="M829.17,285.42l-107.19-6.27,101.86-33.86-105.06,21.73,89.72-58.93-95.99,48.26,71.19-80.39-80.12,71.33,48.26-95.99-59.06,89.72,21.6-104.92-33.73,101.72-6.27-107.19-1.33,156.12,156.12-1.33Z" class="cls-1" data-name="rw-a"/></g><g id="rw-b-2" data-name="rw-b"><path id="rw-a-3" d="M519.6,285.42l107.19,6.27-101.86,33.86,105.06-21.73-89.72,58.93,95.99-48.26-71.19,80.39,80.12-71.33-48.26,95.99,59.06-89.72-21.6,104.92,33.73-101.72,6.27,107.19,1.33-156.12-156.12,1.33Z" class="cls-1" data-name="rw-a"/><path id="rw-a-4" d="M519.6,285.42l107.19-6.27-101.86-33.86,105.06,21.73-89.72-58.93,95.99,48.26-71.19-80.39,80.12,71.33-48.26-95.99,59.06,89.72-21.6-104.92,33.73,101.72,6.27-107.19,1.33,156.12-156.12-1.33Z" class="cls-1" data-name="rw-a"/></g><circle id="circle4" cx="674.39" cy="285.42" r="45.73" class="cls-2"/></g></svg>