<svg xmlns="http://www.w3.org/2000/svg" xmlns:svg="http://www.w3.org/2000/svg" id="Layer_1" data-name="Layer 1" version="1.1" viewBox="0 0 960 960"><defs id="defs1"><style id="style1">.cls-1,.cls-2,.cls-3,.cls-4,.cls-5,.cls-6,.cls-7,.cls-8{stroke-width:0}.cls-1,.cls-3{fill:#0000bf}.cls-1,.cls-4,.cls-6,.cls-8{fill-rule:evenodd}.cls-2,.cls-8{fill:#d50000}.cls-4{fill:#ffdf00}.cls-5,.cls-6{fill:#fff}.cls-7{fill:#eee}.cls-9{mask:url(#mask)}</style><mask id="mask" width="960.59" height="960.59" x="-.59" y="-.25" maskUnits="userSpaceOnUse"><g id="a"><circle id="circle1" cx="479.7" cy="480.04" r="480.3" class="cls-5"/></g></mask></defs><g id="g4" class="cls-9" mask="url(#mask)"><g id="g3"><path id="path1" d="M-.59,313.07l476.17-36.21,484.42,36.21v333.96l-478.23,60.6L-.59,647.02v-333.96Z" class="cls-3"/><path id="path2" d="M-.59-.25h960.59v313.32H-.59V-.25Z" class="cls-7"/><path id="path3" d="M-.59,647.02h960.59v313.32H-.59v-313.32Z" class="cls-2"/></g></g><g id="g9"><path id="path4" d="M433,196.16c-7.53,115.7-11.78,179.05-29.36,208.41-19.12,31.48-37.66,54.47-112.03,82.28-74.17-27.81-92.71-50.8-111.83-82.28-17.38-29.36-21.83-92.71-29.36-208.41l11.01-3.67c22.02-6.76,38.63-12.17,50.8-14.49,17.38-3.86,32.26-7.92,79.19-8.88,46.94.77,61.81,5.22,79.19,8.88,12.36,2.51,29.55,7.73,51.38,14.49l11.01,3.67Z" class="cls-8"/><path id="path5" d="M422.19,192.3c-7.15,115.5-12.94,168.43-22.41,193.73-17.96,43.65-46.55,67.6-108.16,90.2-61.42-22.79-90.01-46.55-108.16-90.2-9.27-25.3-15.26-78.03-22.02-193.73,21.63-6.76,38.63-11.98,50.8-14.49,17.38-3.67,32.26-8.11,79.19-8.88,46.94.77,62,5.22,79.38,8.88,12.36,2.51,29.55,7.73,51.38,14.49" class="cls-1"/><path id="path6" d="M291.62,227.64l2.9,7.15,12.94,1.74-8.31,5.02,8.11,5.41-11.78,1.93-3.67,6.37-3.86-6.57-11.59-1.55,7.73-5.6-7.73-5.02,12.36-1.93,2.9-6.95Z" class="cls-4"/><path id="path7" d="M395.34,358.79l-7.15-5.79-5.22-8.5-10.04-8.88-5.41-8.88-10.04-9.08-5.02-8.88-5.41-4.44-3.67-3.28-9.08,7.92-5.02,8.88-6.37,5.6-6.76-5.41-5.22-9.08-19.32-34.19-19.32,34.19-5.02,9.08-6.95,5.41-6.18-5.79-5.02-8.69-9.08-7.92-3.67,3.28-5.41,4.44-5.02,8.88-10.04,9.08-5.41,8.88-10.24,8.88-5.02,8.5-7.15,5.79c4.12,25.76,16.29,49.56,34.77,67.99,12.36,11.78,37.66,27.81,68.57,38.44,25.38-8.04,48.85-21.18,68.95-38.63,18.51-18.35,30.74-42.08,34.96-67.8" class="cls-6"/><path id="path8" d="M322.52,179.16l2.9,6.95,12.94,1.93-8.31,4.83,8.11,5.6-11.78,1.93-3.67,6.37-3.86-6.57-11.4-1.55,7.73-5.79-7.92-4.83,12.36-1.93,2.9-6.95ZM260.71,179.16l2.9,6.76,12.94,1.93-8.31,5.02,8.11,5.41-11.78,1.93-3.67,6.37-4.06-6.57-11.2-1.55,7.73-5.6-7.92-5.02,12.36-1.93,2.9-6.95v.19Z" class="cls-4"/><path id="path9" d="M379.31,402.64h-13.91l-12.94-.97-15.65-7.73-17.77.19-15.26,7.53-11.98.97-12.17-.97-15.26-7.53h-17.58l-15.65,7.73-12.94.77h-14.29l-6.76-11.59.19-.39,21.05,3.48,12.75-.97,15.65-7.73h17.77l15.45,7.73,11.98.97,11.98-1.16,15.45-7.34h17.38l15.84,7.53,12.94.97,20.28-3.67.39.58-6.95,11.59ZM217.06,420.6l13.91-.97,15.65-7.73h17.58l15.45,7.53,11.98,1.16,11.98-1.16,15.45-7.53h17.58l15.65,7.73,14.1.97,9.08-11.2-.39-.39-9.66,2.9-12.94-.97-15.65-7.73h-17.58l-15.45,7.73-11.98.97-11.98-.97-15.45-7.73h-17.58l-15.65,7.73-12.94.97-9.66-2.32v.39l8.5,10.62Z" class="cls-1"/></g></svg>