<svg xmlns="http://www.w3.org/2000/svg" xmlns:svg="http://www.w3.org/2000/svg" id="svg4" version="1.1" viewBox="0 0 512 512"><mask id="a"><circle id="circle1" cx="256" cy="256" r="256" fill="#fff"/></mask><g id="g4" mask="url(#a)"><path id="path1" fill="#eee" d="M0 167l253.8-19.3L512 167v178l-254.9 32.3L0 345z" style="fill:#fff;fill-opacity:1"/><path id="path2" fill="#d80027" d="M0 0h512v167H0z" style="fill:#090;fill-opacity:1"/><path id="path3" fill="#333" d="M0 345h512v167H0z" style="fill:#000;fill-opacity:1"/><polygon id="polygon3" points="331.1 225.4 366.5 225.4 338 246.9 349 281.1 349 281 320.1 260.1 291.5 281.2 302.1 247 273.5 225.8 308.8 225.5 319.8 191.4" class="st3" transform="translate(-241.14849,19.7)" style="clip-rule:evenodd;fill:red;fill-rule:evenodd"/><polygon id="polygon3-3" points="338 246.9 349 281.1 349 281 320.1 260.1 291.5 281.2 302.1 247 273.5 225.8 308.8 225.5 319.8 191.4 331.1 225.4 366.5 225.4" class="st3" transform="translate(-65.216345,19.7)" style="clip-rule:evenodd;fill:red;fill-rule:evenodd"/><polygon id="polygon3-5" points="331.1 225.4 366.5 225.4 338 246.9 349 281.1 349 281 320.1 260.1 291.5 281.2 302.1 247 273.5 225.8 308.8 225.5 319.8 191.4" class="st3" transform="translate(110.7158,19.7)" style="clip-rule:evenodd;fill:red;fill-rule:evenodd"/></g></svg>